<svg width="1024" height="1024" viewBox="0 0 1024 1024" fill="none" xmlns="http://www.w3.org/2000/svg" role="img" aria-label="ArNega app icon">
  <defs>
    <linearGradient id="ic-aurora" x1="330" y1="322" x2="710" y2="700" gradientUnits="userSpaceOnUse">
      <stop offset="0" stop-color="#6CA8FF"/>
      <stop offset="1" stop-color="#7CE3CE"/>
    </linearGradient>
    <linearGradient id="ic-fill" x1="512" y1="76" x2="512" y2="948" gradientUnits="userSpaceOnUse">
      <stop offset="0" stop-color="#1B2029"/>
      <stop offset="0.55" stop-color="#10131B"/>
      <stop offset="1" stop-color="#0A0C11"/>
    </linearGradient>
    <linearGradient id="ic-rim" x1="512" y1="76" x2="512" y2="948" gradientUnits="userSpaceOnUse">
      <stop offset="0" stop-color="#FFFFFF" stop-opacity="0.2"/>
      <stop offset="0.35" stop-color="#FFFFFF" stop-opacity="0.07"/>
      <stop offset="1" stop-color="#FFFFFF" stop-opacity="0.03"/>
    </linearGradient>
    <radialGradient id="ic-halo" cx="512" cy="470" r="430" gradientUnits="userSpaceOnUse">
      <stop offset="0" stop-color="#6CA8FF" stop-opacity="0.20"/>
      <stop offset="0.55" stop-color="#6CA8FF" stop-opacity="0.07"/>
      <stop offset="1" stop-color="#6CA8FF" stop-opacity="0"/>
    </radialGradient>
    <filter id="ic-glow" x="-60%" y="-60%" width="220%" height="220%">
      <feGaussianBlur stdDeviation="52"/>
    </filter>
    <clipPath id="ic-clip">
      <rect x="76" y="76" width="872" height="872" rx="200"/>
    </clipPath>
  </defs>

  <rect x="76" y="76" width="872" height="872" rx="200" fill="url(#ic-fill)"/>
  <g clip-path="url(#ic-clip)">
    <rect x="76" y="76" width="872" height="872" fill="url(#ic-halo)"/>
  </g>
  <rect x="82" y="82" width="860" height="860" rx="194" stroke="url(#ic-rim)" stroke-width="12" fill="none"/>

  <g filter="url(#ic-glow)" opacity="0.55" stroke="url(#ic-aurora)" stroke-width="86" stroke-linecap="round" stroke-linejoin="round" fill="none">
    <path d="M694 322 V493 Q694 568 619 568 H351"/>
    <path d="M458 450 L330 568 L458 686"/>
  </g>
  <g stroke="url(#ic-aurora)" stroke-width="86" stroke-linecap="round" stroke-linejoin="round" fill="none">
    <path d="M694 322 V493 Q694 568 619 568 H351"/>
    <path d="M458 450 L330 568 L458 686"/>
  </g>
</svg>
